<?xml version="1.0" encoding="utf-8"?>
		<!-- Generator: Adobe Illustrator 19.0.0, SVG Export Plug-In . SVG Version: 6.00 Build 0)  -->
<svg version="1.1" id="Calque_1" xmlns="http://www.w3.org/2000/svg" xmlns:xlink="http://www.w3.org/1999/xlink" x="0px" y="0px"
	 width="1em" height="1em" viewBox="-16 170.9 561.4 500" style="enable-background:new -16 170.9 561.4 500;"
	 xml:space="preserve">
<style type="text/css">
	.st0{fill:#10AC97;}
</style>
<path class="st0" d="M544.2,360.2c-3.2-9.3-12.5-15.6-23-15.6L343,344.4l-55.3-157.9c-3.3-9.3-12.5-15.6-23-15.6s-19.8,6.3-23,15.6
	l-55.3,157.9L8.2,344.7c-10.5,0-19.8,6.3-23,15.6c-3.3,9.3,0.3,19.5,8.8,25.2l144,97.8L83.1,641.4c-3.2,9.3,0.3,19.5,8.8,25.2
	c8.3,5.6,20.1,5.6,28.4,0l144.3-97.4L409,666.6c4.2,2.8,9.1,4.3,14.2,4.3c5.2,0,10.1-1.5,14.2-4.3c8.5-5.8,12-15.9,8.8-25.2
	l-54.8-158.1l144-97.8C543.9,379.7,547.4,369.5,544.2,360.2z"/>

</svg>